<svg width="41" height="41" viewBox="0 0 41 41" fill="none" xmlns="http://www.w3.org/2000/svg">
<path d="M15.3 20.4976C17.3156 20.4976 19.2487 19.6285 20.674 18.0816C22.0993 16.5346 22.9 14.4365 22.9 12.2488C22.9 10.0611 22.0993 7.96296 20.674 6.41602C19.2487 4.86907 17.3156 4 15.3 4C13.2844 4 11.3513 4.86907 9.92599 6.41602C8.50071 7.96296 7.7 10.0611 7.7 12.2488C7.7 14.4365 8.50071 16.5346 9.92599 18.0816C11.3513 19.6285 13.2844 20.4976 15.3 20.4976ZM12.5866 23.5909C6.73812 23.5909 2 28.7335 2 35.0812C2 36.1381 2.78969 36.9952 3.76344 36.9952H26.8366C26.9434 36.9952 27.0444 36.9823 27.1512 36.9629C22.6209 33.4121 21.2256 27.8764 21.0297 24.0613C20.0737 23.752 19.0644 23.5909 18.0194 23.5909H12.5866ZM30.9216 18.5449L23.7966 21.6382C23.2562 21.8767 22.9 22.4438 22.9 23.0753C22.9 27.1546 24.4378 33.9534 30.9037 36.8792C31.2541 37.0403 31.6519 37.0403 32.0022 36.8792C38.4622 33.9534 40 27.1546 40 23.0753C40 22.4438 39.6438 21.8767 39.1034 21.6382L31.9784 18.5449C31.64 18.3967 31.26 18.3967 30.9216 18.5449ZM37.1144 24.1064C36.8828 27.3737 35.4994 31.627 31.45 33.7536V21.6447L37.1144 24.1064Z" fill="#42A5F5"/>
</svg>
