<svg width="69" height="69" viewBox="0 0 69 69" fill="none" xmlns="http://www.w3.org/2000/svg">
<!--!Font Awesome Free 6.5.2 by @fontawesome - https://fontawesome.com License - https://fontawesome.com/license/free Copyright 2024 Fonticons, Inc.-->
<path d="M24.7713 34.4957C28.2223 34.4957 31.532 32.9419 33.9723 30.1761C36.4125 27.4104 37.7834 23.6592 37.7834 19.7478C37.7834 15.8365 36.4125 12.0853 33.9723 9.31954C31.532 6.55379 28.2223 5 24.7713 5C21.3202 5 18.0105 6.55379 15.5703 9.31954C13.13 12.0853 11.7591 15.8365 11.7591 19.7478C11.7591 23.6592 13.13 27.4104 15.5703 30.1761C18.0105 32.9419 21.3202 34.4957 24.7713 34.4957ZM20.1255 40.0261C10.1123 40.0261 2 49.2205 2 60.5694C2 62.459 3.35204 63.9914 5.01923 63.9914H44.5233C44.7063 63.9914 44.8791 63.9683 45.0621 63.9338C37.3056 57.5853 34.9167 47.6881 34.5812 40.8672C32.9445 40.3142 31.2164 40.0261 29.4272 40.0261H20.1255ZM51.5174 31.0046L39.3185 36.535C38.3934 36.9613 37.7834 37.9752 37.7834 39.1044C37.7834 46.3976 40.4164 58.5531 51.4869 63.784C52.0866 64.072 52.7677 64.072 53.3675 63.784C64.4279 58.5531 67.0608 46.3976 67.0608 39.1044C67.0608 37.9752 66.4508 36.9613 65.5258 36.535L53.3269 31.0046C52.7474 30.7396 52.0968 30.7396 51.5174 31.0046ZM62.1202 40.9479C61.7238 46.7894 59.3551 54.3937 52.4221 58.1959V36.5465L62.1202 40.9479Z" fill="#5383FF"/>
</svg>
