<svg width="1368" height="246" viewBox="0 0 1368 246" fill="none" xmlns="http://www.w3.org/2000/svg">
<path d="M0 166L15.2 172.3C30.3 178.7 60.7 191.3 91 195.2C121.3 199 151.7 194 182.2 184C212.7 174 243.3 159 273.8 157.5C304.3 156 334.7 168 365 166.3C395.3 164.7 425.7 149.3 456 146.5C486.3 143.7 516.7 153.3 547 154C577.3 154.7 607.7 146.3 638.2 162.8C668.7 179.3 699.3 220.7 729.8 231.7C760.3 242.7 790.7 223.3 821 219.8C851.3 216.3 881.7 228.7 912 237C942.3 245.3 972.7 249.7 1003 238.2C1033.3 226.7 1063.7 199.3 1094.2 190.7C1124.7 182 1155.3 192 1185.8 194.3C1216.3 196.7 1246.7 191.3 1277 193.3C1307.3 195.3 1326.9 154.4 1342 159L1368 166V0L1352.8 0C1337.7 0 1307.3 0 1277 0C1246.7 0 1216.3 0 1185.8 0C1155.3 0 1124.7 0 1094.2 0C1063.7 0 1033.3 0 1003 0C972.7 0 942.3 0 912 0C881.7 0 851.3 0 821 0C790.7 0 760.3 0 729.8 0C699.3 0 668.7 0 638.2 0C607.7 0 577.3 0 547 0C516.7 0 486.3 0 456 0C425.7 0 395.3 0 365 0C334.7 0 304.3 0 273.8 0C243.3 0 212.7 0 182.2 0C151.7 0 121.3 0 91 0C60.7 0 30.3 0 15.2 0L0 0L0 166Z" fill="#2196F3"/>
</svg>
